<?xml version="1.0" encoding="UTF-8" standalone="no"?>
<svg width="43px" height="43px" viewBox="0 0 43 43" version="1.1" xmlns="http://www.w3.org/2000/svg" xmlns:xlink="http://www.w3.org/1999/xlink" xmlns:sketch="http://www.bohemiancoding.com/sketch/ns">
    <defs></defs>
    <g id="Page-1" stroke="none" stroke-width="1" fill="none" fill-rule="evenodd" sketch:type="MSPage">
        <g id="Artboard-13" sketch:type="MSArtboardGroup" transform="translate(-174.000000, -174.000000)" stroke="#333333" stroke-width="2" stroke-linejoin="round">
            <path d="M201.668908,215.788118 C201.668908,215.788118 219.396146,208.470586 215.062272,191.152564 C210.728397,173.834543 195.287675,175.04491 195.287675,175.04491 C195.287675,175.04491 179.701137,173.326263 175.617697,191.152565 C171.534257,208.978866 189.033353,216 189.033353,216 L189.393667,212.324931 C189.393667,212.324931 186.848618,211.834993 184.898222,210.768482 C182.947826,209.701972 181.661088,207.243698 181.661088,207.243698 C181.661088,207.243698 181.636943,207.165038 180.972433,206.349553 C180.307922,205.534067 179.42818,205.530434 179.476396,204.821243 C179.524612,204.112052 179.253836,203.689463 180.972433,203.689463 C181.381678,203.689463 182.198783,204.182998 183.368026,205.318876 C184.537268,206.454755 185.364181,207.606507 187.051322,208.099659 C190.152815,209.006224 190.152814,206.124385 190.152814,206.124385 C190.152814,206.124385 183.422276,205.165888 181.661088,199.242797 C179.8999,193.319705 182.913599,188.776243 182.913599,188.776243 C182.913599,188.776243 182.525403,186.806027 182.913599,184.878944 C183.301794,182.951861 183.884087,182.170493 183.884087,182.170493 C183.884087,182.170493 185.594599,182.170078 187.313976,182.944188 C189.033353,183.718298 190.17982,184.47644 190.17982,184.47644 C190.17982,184.47644 193.55066,183.941107 195.287676,183.928778 C196.920273,183.91719 200.734712,184.47644 200.734712,184.47644 C200.734712,184.47644 202.235442,183.23326 203.813525,182.710897 C205.391607,182.188534 207.007221,182.188534 207.007221,182.188534 C207.007221,182.188534 207.924624,183.913433 207.924624,185.480108 C207.924624,187.046783 207.649651,188.738295 207.649651,188.738295 C207.649651,188.738295 210.635353,193.058831 209.142501,198.940037 C207.649649,204.821243 200.734712,206.124386 200.734712,206.124386 C200.734712,206.124386 201.362627,207.648304 201.362627,210.185471 C201.362627,212.722638 201.362627,215.450162 201.362627,215.450162 L201.668908,215.788118 Z" id="Path-225" sketch:type="MSShapeGroup"></path>
        </g>
    </g>
</svg>