<?xml version="1.0" encoding="UTF-8" standalone="no"?>
<svg class="contact-icon" width="43px" height="42px" viewBox="0 0 43 42" version="1.1" xmlns="http://www.w3.org/2000/svg" xmlns:xlink="http://www.w3.org/1999/xlink" xmlns:sketch="http://www.bohemiancoding.com/sketch/ns">
    <defs></defs>
    <g id="Page-1" stroke="none" stroke-width="1" fill="none" fill-rule="evenodd" sketch:type="MSPage">
        <g id="Artboard-13" sketch:type="MSArtboardGroup" transform="translate(-88.000000, -248.000000)" stroke="#333333">
            <g id="Group" sketch:type="MSLayerGroup" transform="translate(90.000000, 249.932294)">
                <path d="M0.284476432,0.470621724 L0.284476432,37.8849264 L38.7715407,37.8849264 L38.7715425,0.470621711 L0.284476432,0.470621724 Z" id="Path-216" stroke-width="4" stroke-linecap="round" stroke-linejoin="round" sketch:type="MSShapeGroup"></path>
                <path d="M28.8203388,0.439829698 L28.8203388,8.34389778 L38.4451059,8.34389778 L38.4451056,0.439829704 L28.8203388,0.439829698 Z" id="Path-218" stroke-width="3" stroke-linejoin="round" sketch:type="MSShapeGroup"></path>
                <path d="M0,16.6013117 L10.3613968,16.6013117 C10.3613968,16.6013117 11.567641,11 18.7994608,11 C26.0312807,11 28.8104293,16.6013117 28.8104293,16.6013117 L37.5989222,16.6013117" id="Path-217" stroke-width="4" sketch:type="MSShapeGroup"></path>
                <path d="M19.7311128,11.0001814 C19.7311128,11.0001814 17.3031849,11.1146388 14.9650715,12.4203505 C12.6959989,13.6875066 11,16.0938796 11,19.4870797 C11,26.3767243 16.9439174,28.013965 19.7311124,28.013965 C22.5183075,28.013965 27.94514,26.8613271 27.94514,19.4870797 C27.94514,16.1040434 26.2401042,13.6648524 24.2565746,12.4203505 C21.9164621,10.9521222 19.2386362,11.0001814 19.2386362,11.0001814" id="Path-219" stroke-width="7" sketch:type="MSShapeGroup"></path>
            </g>
        </g>
    </g>
</svg>