<?xml version="1.0" encoding="UTF-8" standalone="no"?>
<svg width="78px" height="43px" viewBox="0 0 78 43" version="1.1" xmlns="http://www.w3.org/2000/svg" xmlns:xlink="http://www.w3.org/1999/xlink" xmlns:sketch="http://www.bohemiancoding.com/sketch/ns">
    <!-- Generator: Sketch 3.4 (15575) - http://www.bohemiancoding.com/sketch -->
    <title>Group</title>
    <desc>Created with Sketch.</desc>
    <defs></defs>
    <g id="Page-1" stroke="none" stroke-width="1" fill="none" fill-rule="evenodd" sketch:type="MSPage">
        <g id="anchor-tattoo" sketch:type="MSArtboardGroup" transform="translate(-361.000000, -246.000000)" stroke-linecap="round" stroke="#50E3C2" stroke-width="4">
            <g id="Group" sketch:type="MSLayerGroup" transform="translate(363.000000, 248.000000)">
                <path d="M73.9555379,5.34664477 C73.9555379,5.34664477 68.113867,3.37851714 59.6280941,5.34664477 C51.1423213,7.3147724 48.0701756,11.7330328 48.0701756,11.7330328 C48.0701756,11.7330328 40.4723894,19.5583102 37.4376197,21.6808638 C34.5636314,23.6909649 29.0604991,24.8704123 29.0604991,24.8704123 C29.0604991,24.8704123 21.5362879,24.1984284 17.7979087,22.8475947 C13.2629572,21.2089259 12.3295916,20.7241449 12.3295916,20.7241449 C12.3295916,20.7241449 3.31700549,17.24608 1.79766573,11.7330332 C0.278325976,6.2199863 0.455248358,1.59495418 1.02762397,0.609721169 C1.59999958,-0.375511841 2.53635198,4.07053421 5.50786716,5.34664486 C8.47938234,6.62275551 11.1021532,7.58465295 12.3295916,9.80355357 C14.795038,14.2604623 14.0023902,19.1301007 14.0023902,19.1301007" id="Path-115" sketch:type="MSShapeGroup"></path>
                <path d="M59.7221617,18.4548561 C57.8714365,23.4098121 50.108307,28.2714302 50.108307,28.2714302 C50.108307,28.2714302 48.5846057,27.5633709 48.3115429,20.4776737 C48.1978299,17.5269391 49.1982575,14.7373628 51.3450406,11.9058549 C53.4918237,9.07434695 60.6788799,5.99417989 60.6788799,5.99417989 C60.6788799,5.99417989 61.5728869,13.4999 59.7221617,18.4548561 Z" id="Path-116" sketch:type="MSShapeGroup"></path>
                <path d="M36.6989333,7.82229992 C33.3301735,8.3890107 31.6374148,10.6232454 30.2972325,12.0691971 C29.0627982,13.4010551 28.0240953,13.3992691 27.3731155,13.3992691 C26.7221356,13.3992691 29.1190986,14.7489846 32.2420252,16.2614035 C38.3943384,19.2409405 45.6360845,12.0691971 45.6360845,12.0691971 C45.6360845,12.0691971 43.1706388,6.73359504 36.6989333,7.82229992 Z" id="Path-117" sketch:type="MSShapeGroup"></path>
                <path d="M27.785117,24.9652089 C27.785117,24.9652089 19.8155311,25.9980245 17.5178932,27.8047379 C14.5859072,30.1102615 12.4096962,36.6368584 12.6409622,37.8539286 C12.8722283,39.0709987 15.5184103,35.621829 19.0032865,35.621829 C22.4881626,35.621829 25.1116771,33.8942491 26.5097357,33.015646 C29.4732291,31.1532531 29.4732294,24.8179092 29.4732294,24.8179092" id="Path-118" sketch:type="MSShapeGroup"></path>
            </g>
        </g>
    </g>
</svg>