<?xml version="1.0" encoding="UTF-8" standalone="no"?>
<svg width="46px" height="34px" viewBox="0 0 46 34" version="1.1" xmlns="http://www.w3.org/2000/svg" xmlns:xlink="http://www.w3.org/1999/xlink" xmlns:sketch="http://www.bohemiancoding.com/sketch/ns">
    <defs></defs>
    <g id="Page-1" stroke="none" stroke-width="1" fill="none" fill-rule="evenodd" sketch:type="MSPage">
        <g id="Artboard-13" sketch:type="MSArtboardGroup" transform="translate(-90.000000, -119.000000)" stroke="#333333" stroke-width="3">
            <g id="mail" sketch:type="MSLayerGroup" transform="translate(91.000000, 121.000000)">
                <path d="M41.7683918,10.3213502 C40.1336872,2.09060121 41.174329,2.49942606 39.765864,0.948196589 C38.357399,-0.603032882 34.2075132,1.17709067 19.947059,2.88317748 C5.68660485,4.58926428 3.2407399,2.49913094 1.53022853,3.95302141 C-0.180282844,5.40691188 1.53022854,10.4357978 2.91834114,17.0038186 C4.30645374,23.5718394 4.12468754,28.8299556 5.13000077,29.6283894 C5.65467789,30.0450953 12.6357204,27.7972585 24.9140007,25.7486936 C37.1922809,23.7001286 42.266554,24.4732013 42.7156522,23.7001277 C43.3434492,22.6194439 43.4030964,18.5520992 41.7683918,10.3213502 Z" id="Path-208" sketch:type="MSShapeGroup"></path>
                <path d="M15.5311419,15.5343837 C15.5311419,15.5343837 4.16814238,28.604285 4.16814238,26.0704047 C4.16814238,23.5365245 4.02921099,22.5846631 2.97054992,17.386153 C1.95373056,12.3931047 0.540610707,6.00820033 1.24318425,6.21284578 C1.68475076,6.34146516 3.65428525,8.11788533 7.12233382,10.185332 C10.5903824,12.2527787 24.750024,21.0724774 25.9531527,21.0724777 C27.691562,21.072478 39.7477164,3.15308948 40.1829685,2.39009926 C40.3687488,2.06442936 40.7992611,6.11837086 41.3750375,9.36972165 C42.148209,13.7357429 42.848178,17.6997245 42.8481782,18.1943863 C42.8481785,19.0574199 33.0877119,13.0615679 33.0877119,13.0615679" id="Path-209" sketch:type="MSShapeGroup"></path>
            </g>
        </g>
    </g>
</svg>