<?xml version="1.0" encoding="UTF-8" standalone="no"?>
<svg class="contact-icon" width="49px" height="40px" viewBox="0 0 49 40" version="1.1" xmlns="http://www.w3.org/2000/svg" xmlns:xlink="http://www.w3.org/1999/xlink" xmlns:sketch="http://www.bohemiancoding.com/sketch/ns">

    <defs></defs>
    <g id="Page-1" stroke="none" stroke-width="1" fill="none" fill-rule="evenodd" sketch:type="MSPage">
        <g id="Artboard-13" sketch:type="MSArtboardGroup" transform="translate(-87.000000, -175.000000)" stroke="#333333" stroke-width="2">
            <path d="M131.298683,178.236508 L126.619961,180.320014 C126.619961,180.320014 121.662908,175.000459 115.850135,177.828415 C110.037362,180.656371 111.376416,188.669977 111.376416,188.669977 C111.376416,188.669977 105.105176,188.669977 100.763132,186.729623 C96.421087,184.789269 90.8314893,179.268218 90.8314893,179.268218 C90.8314893,179.268218 89.4140041,183.600698 90.8314893,186.135338 C92.2489745,188.669977 96.0040665,191.538424 96.0040665,191.538424 L92.3975458,191.538424 L90,191.538424 C90,191.538424 90.754335,194.633554 93.3792006,196.249984 C96.0040662,197.866415 99.8666022,198.609271 99.8666022,198.609271 C99.8666022,198.609271 99.0204475,199.281349 96.9882721,199.892213 C94.9560967,200.503077 93.8972872,200.261728 93.8972872,200.261728 C93.8972872,200.261728 94.3783909,202.500497 97.5707613,204.120118 C100.763132,205.739739 104.182822,205.069254 104.182822,205.069254 C104.182822,205.069254 100.763132,207.954281 97.5707613,209.247105 C94.3783909,210.539929 90.2643039,210.636215 90.2643039,210.636215 C90.2643039,210.636215 101.758496,218.587649 115.850134,209.790379 C129.941772,200.993109 128.652774,185.199593 128.652774,185.199593 L132.555162,182.016787 L127.136773,182.756137 L131.298683,178.236508 Z" id="Path-215" sketch:type="MSShapeGroup"></path>
        </g>
    </g>
</svg>